<mxfile host="app.diagrams.net" modified="2020-06-10T13:06:23.515Z" agent="5.0 (Windows NT 10.0; Win64; x64) AppleWebKit/537.36 (KHTML, like Gecko) Chrome/83.0.4103.97 Safari/537.36" etag="U5OLomusPGsj01PUrXCX" version="13.2.1" type="github" pages="2">
  <diagram id="UR5SKWymjeLuYB5GyDOJ" name="Page-1">
    <mxGraphModel dx="925" dy="537" grid="1" gridSize="10" guides="1" tooltips="1" connect="1" arrows="1" fold="1" page="1" pageScale="1" pageWidth="827" pageHeight="1169" math="0" shadow="0">
      <root>
        <mxCell id="0" />
        <mxCell id="1" parent="0" />
        <mxCell id="TnBT8YGuHE52QdCzRpyW-3" value="Fusion" style="rounded=1;whiteSpace=wrap;html=1;verticalAlign=top;" vertex="1" parent="1">
          <mxGeometry x="470" y="10" width="250" height="240" as="geometry" />
        </mxCell>
        <mxCell id="rCVcqXYc3VxTAlky5G7X-1" value="Anthill" style="rounded=1;whiteSpace=wrap;html=1;verticalAlign=top;" parent="1" vertex="1">
          <mxGeometry x="180" y="50" width="210" height="180" as="geometry" />
        </mxCell>
        <mxCell id="D42imSjjHHGO6OyLd1Ts-2" value="Tender / Lead Info" style="rounded=1;whiteSpace=wrap;html=1;verticalAlign=top;" parent="1" vertex="1">
          <mxGeometry x="200" y="80" width="180" height="140" as="geometry" />
        </mxCell>
        <mxCell id="TnBT8YGuHE52QdCzRpyW-4" style="edgeStyle=orthogonalEdgeStyle;rounded=0;orthogonalLoop=1;jettySize=auto;html=1;exitX=0.5;exitY=1;exitDx=0;exitDy=0;" edge="1" parent="1" source="D42imSjjHHGO6OyLd1Ts-4" target="rCVcqXYc3VxTAlky5G7X-16">
          <mxGeometry relative="1" as="geometry" />
        </mxCell>
        <mxCell id="TnBT8YGuHE52QdCzRpyW-6" value="Save" style="edgeLabel;html=1;align=center;verticalAlign=middle;resizable=0;points=[];" vertex="1" connectable="0" parent="TnBT8YGuHE52QdCzRpyW-4">
          <mxGeometry x="-0.2347" y="-2" relative="1" as="geometry">
            <mxPoint as="offset" />
          </mxGeometry>
        </mxCell>
        <mxCell id="D42imSjjHHGO6OyLd1Ts-4" value="Design" style="rounded=1;whiteSpace=wrap;html=1;verticalAlign=top;" parent="1" vertex="1">
          <mxGeometry x="490" y="50" width="210" height="180" as="geometry" />
        </mxCell>
        <mxCell id="rCVcqXYc3VxTAlky5G7X-14" value="Tender / Lead Info" style="rounded=1;whiteSpace=wrap;html=1;verticalAlign=top;" parent="1" vertex="1">
          <mxGeometry x="500" y="80" width="190" height="140" as="geometry" />
        </mxCell>
        <mxCell id="rCVcqXYc3VxTAlky5G7X-15" value="" style="group" parent="1" vertex="1" connectable="0">
          <mxGeometry x="497" y="360" width="197" height="115.49" as="geometry" />
        </mxCell>
        <mxCell id="rCVcqXYc3VxTAlky5G7X-16" value="&lt;b&gt;&lt;font style=&quot;font-size: 19px&quot;&gt;Design Files&lt;/font&gt;&lt;/b&gt;" style="rounded=1;whiteSpace=wrap;html=1;verticalAlign=top;strokeWidth=1;strokeColor=#020912;dashed=1;fontSize=32;" parent="rCVcqXYc3VxTAlky5G7X-15" vertex="1">
          <mxGeometry width="197" height="115.48999999999998" as="geometry" />
        </mxCell>
        <mxCell id="rCVcqXYc3VxTAlky5G7X-17" value="" style="shape=image;html=1;verticalAlign=top;verticalLabelPosition=bottom;labelBackgroundColor=#ffffff;imageAspect=0;aspect=fixed;image=https://cdn3.iconfinder.com/data/icons/dompicon-glyph-file-format-2/256/file-xml-format-type-128.png" parent="rCVcqXYc3VxTAlky5G7X-15" vertex="1">
          <mxGeometry x="72.57751724137931" y="42.24" width="43.30474272930648" height="43.30474272930648" as="geometry" />
        </mxCell>
        <mxCell id="rCVcqXYc3VxTAlky5G7X-18" value="" style="shape=image;html=1;verticalAlign=top;verticalLabelPosition=bottom;labelBackgroundColor=#ffffff;imageAspect=0;aspect=fixed;image=https://cdn3.iconfinder.com/data/icons/brands-applications/512/PDF-128.png" parent="rCVcqXYc3VxTAlky5G7X-15" vertex="1">
          <mxGeometry x="17.834160919540228" y="45.99999999999999" width="39.99055928411632" height="39.99055928411632" as="geometry" />
        </mxCell>
        <mxCell id="rCVcqXYc3VxTAlky5G7X-19" value="" style="shape=image;html=1;verticalAlign=top;verticalLabelPosition=bottom;labelBackgroundColor=#ffffff;imageAspect=0;aspect=fixed;image=https://cdn3.iconfinder.com/data/icons/dompicon-glyph-file-format-2/256/file-xml-format-type-128.png" parent="rCVcqXYc3VxTAlky5G7X-15" vertex="1">
          <mxGeometry x="126.52381609195402" y="40.37" width="43.30474272930648" height="43.30474272930648" as="geometry" />
        </mxCell>
        <mxCell id="rCVcqXYc3VxTAlky5G7X-20" value="&lt;b&gt;&lt;font style=&quot;font-size: 12px&quot;&gt;ROM&lt;/font&gt;&lt;/b&gt;" style="rounded=1;whiteSpace=wrap;html=1;verticalAlign=middle;strokeWidth=3;strokeColor=#020912;fontSize=20;direction=south;" parent="rCVcqXYc3VxTAlky5G7X-15" vertex="1">
          <mxGeometry x="126.52381609195402" y="54.009999999999984" width="30.668597701149423" height="21.859999999999996" as="geometry" />
        </mxCell>
        <mxCell id="rCVcqXYc3VxTAlky5G7X-21" value="Site" style="rounded=1;whiteSpace=wrap;html=1;verticalAlign=top;" parent="1" vertex="1">
          <mxGeometry x="210" y="107.25999999999999" width="70" height="45.49" as="geometry" />
        </mxCell>
        <mxCell id="rCVcqXYc3VxTAlky5G7X-22" value="User" style="rounded=1;whiteSpace=wrap;html=1;verticalAlign=top;" parent="1" vertex="1">
          <mxGeometry x="300" y="107.25999999999999" width="70" height="45.49" as="geometry" />
        </mxCell>
        <mxCell id="rCVcqXYc3VxTAlky5G7X-23" value="Account" style="rounded=1;whiteSpace=wrap;html=1;verticalAlign=top;" parent="1" vertex="1">
          <mxGeometry x="255" y="160" width="70" height="45.49" as="geometry" />
        </mxCell>
        <mxCell id="rCVcqXYc3VxTAlky5G7X-24" value="Site" style="rounded=1;whiteSpace=wrap;html=1;verticalAlign=top;" parent="1" vertex="1">
          <mxGeometry x="510" y="107.25999999999999" width="70" height="45.49" as="geometry" />
        </mxCell>
        <mxCell id="rCVcqXYc3VxTAlky5G7X-25" value="User" style="rounded=1;whiteSpace=wrap;html=1;verticalAlign=top;" parent="1" vertex="1">
          <mxGeometry x="610" y="107.25999999999999" width="70" height="45.49" as="geometry" />
        </mxCell>
        <mxCell id="rCVcqXYc3VxTAlky5G7X-26" value="Account" style="rounded=1;whiteSpace=wrap;html=1;verticalAlign=top;" parent="1" vertex="1">
          <mxGeometry x="560" y="160" width="70" height="45.49" as="geometry" />
        </mxCell>
        <mxCell id="TnBT8YGuHE52QdCzRpyW-1" value="" style="endArrow=classic;html=1;entryX=1;entryY=0.25;entryDx=0;entryDy=0;exitX=0;exitY=0.25;exitDx=0;exitDy=0;" edge="1" parent="1" source="rCVcqXYc3VxTAlky5G7X-14" target="D42imSjjHHGO6OyLd1Ts-2">
          <mxGeometry width="50" height="50" relative="1" as="geometry">
            <mxPoint x="390" y="300" as="sourcePoint" />
            <mxPoint x="440" y="250" as="targetPoint" />
          </mxGeometry>
        </mxCell>
        <mxCell id="TnBT8YGuHE52QdCzRpyW-5" value="Lead/Rev" style="edgeLabel;html=1;align=center;verticalAlign=middle;resizable=0;points=[];" vertex="1" connectable="0" parent="TnBT8YGuHE52QdCzRpyW-1">
          <mxGeometry x="-0.1909" y="-3" relative="1" as="geometry">
            <mxPoint x="-11" as="offset" />
          </mxGeometry>
        </mxCell>
        <mxCell id="TnBT8YGuHE52QdCzRpyW-2" value="Lead Info" style="edgeStyle=orthogonalEdgeStyle;rounded=0;orthogonalLoop=1;jettySize=auto;html=1;exitX=1;exitY=0.75;exitDx=0;exitDy=0;entryX=0;entryY=0.75;entryDx=0;entryDy=0;" edge="1" parent="1" source="D42imSjjHHGO6OyLd1Ts-2" target="rCVcqXYc3VxTAlky5G7X-14">
          <mxGeometry relative="1" as="geometry" />
        </mxCell>
      </root>
    </mxGraphModel>
  </diagram>
  <diagram id="64VrfkBewBL0nCpdvMOK" name="Page-2">
    <mxGraphModel dx="925" dy="537" grid="1" gridSize="10" guides="1" tooltips="1" connect="1" arrows="1" fold="1" page="1" pageScale="1" pageWidth="827" pageHeight="1169" math="0" shadow="0">
      <root>
        <mxCell id="H7r9gBhXfw38SQxLLWRa-0" />
        <mxCell id="H7r9gBhXfw38SQxLLWRa-1" parent="H7r9gBhXfw38SQxLLWRa-0" />
      </root>
    </mxGraphModel>
  </diagram>
</mxfile>
